<?xml version="1.0" encoding="utf-8"?>
<svg viewBox="0 0 256 256" xmlns="http://www.w3.org/2000/svg">
  <path fill-rule="evenodd" clip-rule="evenodd" d="M 169.001 128.306 L 169.001 128.306 C 169.001 131.813 166.135 134.679 162.633 134.679 C 150.994 134.679 139.264 134.679 127.662 134.679 L 127.657 134.679 C 124.16 134.679 121.294 131.813 121.294 128.306 L 121.294 99.296 C 121.294 95.79 124.16 92.923 127.657 92.923 L 127.662 92.923 C 131.159 92.923 134.025 95.79 134.025 99.296 L 134.025 121.934 L 162.633 121.934 C 166.135 121.934 169.001 124.8 169.001 128.306 Z" fill="#28292B" stroke="#28292B" stroke-width="0.0762" stroke-miterlimit="22.9256" style=""/>
  <path fill-rule="evenodd" clip-rule="evenodd" d="M 128.046 186.514 C 106.935 186.533 87.982 175.598 77.417 157.317 C 66.848 139.017 66.839 117.083 77.408 98.77 C 99.941 59.73 156.16 59.721 178.688 98.77 C 183.799 107.634 186.528 117.76 186.514 128 C 186.469 160.297 160.325 186.487 128.046 186.514 Z M 128.046 81.554 C 92.416 81.554 70.002 120.457 87.813 151.337 C 105.682 182.327 150.409 182.331 168.283 151.337 C 172.37 144.256 174.51 136.233 174.51 128.055 C 174.51 102.368 153.719 81.554 128.046 81.554 Z" fill="#28292B" stroke="#28292B" stroke-width="0.0762" stroke-miterlimit="22.9256" style=""/>
</svg>