<?xml version="1.0" encoding="utf-8"?>
<svg viewBox="0 0 256 256" xmlns="http://www.w3.org/2000/svg">
  <path d="M 106.546 107.168 L 93.609 84.16 C 92.992 83.031 92.818 81.81 93.17 80.594 C 93.477 79.328 94.181 78.382 95.282 77.797 C 104.965 72.064 115.963 69.312 126.88 69.495 C 135.195 69.673 142.194 74.007 146.286 81.403 C 150.423 88.805 150.382 97.243 146.199 104.594 L 142.546 111.095 L 138.72 108.791 C 134.711 106.491 130.094 105.271 125.737 105.271 C 121.157 105.317 116.581 106.537 112.709 108.791 L 108.791 111.141 L 106.546 107.168 Z" fill="#28292B" stroke="#28292B" stroke-width="0.0762" stroke-miterlimit="22.9256" style=""/>
  <path d="M 114.382 161.175 L 101.445 184.142 C 100.782 185.225 99.858 186.034 98.629 186.354 C 97.44 186.67 96.251 186.533 95.195 185.856 C 85.513 180.128 77.678 171.735 72.398 161.943 C 68.393 154.455 68.526 146.107 72.75 138.752 C 76.928 131.397 84.059 127.246 92.379 127.246 L 99.726 127.2 L 99.685 131.803 C 99.726 136.494 101.006 141.189 103.205 145.07 C 105.536 149.129 108.837 152.558 112.709 154.903 L 116.626 157.161 L 114.382 161.175 Z" fill="#28292B" stroke="#28292B" stroke-width="0.0762" stroke-miterlimit="22.9256" style=""/>
  <path d="M 156.101 127.2 L 181.979 127.246 C 183.209 127.246 184.357 127.698 185.234 128.599 C 186.112 129.504 186.555 130.583 186.51 131.895 C 186.51 143.355 183.342 154.501 177.71 164.11 C 173.44 171.374 166.267 175.433 157.947 175.387 C 149.678 175.342 142.546 171.104 138.409 163.703 L 134.757 157.207 L 138.587 154.949 C 142.592 152.558 145.893 149.038 148.091 145.157 C 150.336 141.097 151.611 136.453 151.611 131.849 L 151.57 127.2 L 156.101 127.2 Z" fill="#28292B" stroke="#28292B" stroke-width="0.0762" stroke-miterlimit="22.9256" style=""/>
  <path d="M 125.957 148.805 C 135.131 148.805 142.574 141.175 142.574 131.767 C 142.574 122.359 135.131 114.729 125.957 114.729 C 116.777 114.729 109.339 122.359 109.339 131.767 C 109.339 141.175 116.777 148.805 125.957 148.805 Z" fill="#28292B" style=""/>
</svg>