<?xml version="1.0" encoding="utf-8"?>
<svg viewBox="0 0 256 256" xmlns="http://www.w3.org/2000/svg">
  <path d="M 127.995 54.857 L 127.995 54.857 C 123.465 54.857 119.794 58.546 119.794 63.099 L 119.794 111.849 C 119.794 116.402 123.465 120.091 127.995 120.091 L 127.995 120.091 C 132.526 120.091 136.197 116.402 136.197 111.849 L 136.197 63.099 C 136.197 58.546 132.526 54.857 127.995 54.857 Z" fill="#28292B" style=""/>
  <path fill-rule="evenodd" clip-rule="evenodd" d="M 99.726 88.507 C 76.544 103.479 69.23 134.807 82.971 158.743 C 102.875 193.399 153.125 193.399 173.029 158.743 C 186.77 134.807 179.456 103.479 156.238 88.485 C 147.858 82.331 156.192 68.736 165.262 74.624 C 174.395 80.553 181.856 88.631 187.287 98.085 C 199.666 119.611 199.666 145.417 187.291 166.949 C 161.093 212.539 94.907 212.539 68.709 166.949 C 56.334 145.417 56.334 119.611 68.713 98.085 C 74.144 88.631 81.605 80.553 90.738 74.624 C 99.808 68.736 108.142 82.331 99.726 88.507 Z" fill="#28292B" style=""/>
</svg>