<?xml version="1.0" encoding="utf-8"?>
<svg viewBox="0 0 256 256" xmlns="http://www.w3.org/2000/svg">
  <path d="M 128.005 157.888 C 144.512 157.888 157.893 144.507 157.893 128 C 157.893 111.493 144.512 98.112 128.005 98.112 C 111.497 98.112 98.117 111.493 98.117 128 C 98.117 144.507 111.497 157.888 128.005 157.888 Z" fill="#28292B" style=""/>
  <path fill-rule="evenodd" clip-rule="evenodd" d="M 90.725 128 C 90.725 130.802 88.471 133.061 85.664 133.061 L 59.918 133.061 C 57.115 133.061 54.857 130.802 54.857 128 C 54.857 125.198 57.115 122.939 59.918 122.939 L 85.664 122.939 C 88.471 122.939 90.725 125.198 90.725 128 Z M 196.082 133.061 L 170.336 133.061 C 167.529 133.061 165.275 130.802 165.275 128 C 165.275 125.198 167.529 122.939 170.336 122.939 L 196.082 122.939 C 198.885 122.939 201.143 125.198 201.143 128 C 201.143 130.77 198.853 133.061 196.082 133.061 Z M 133.061 170.336 L 133.061 196.082 C 133.061 198.885 130.802 201.143 128 201.143 C 125.198 201.143 122.939 198.885 122.939 196.082 L 122.939 170.336 C 122.939 167.529 125.198 165.275 128 165.275 C 130.802 165.275 133.061 167.529 133.061 170.336 Z M 133.061 59.918 L 133.061 85.664 C 133.061 88.471 130.802 90.725 128 90.725 C 125.198 90.725 122.939 88.471 122.939 85.664 L 122.939 59.918 C 122.939 57.115 125.198 54.857 128 54.857 C 130.77 54.857 133.061 57.147 133.061 59.918 Z" fill="#28292B" style=""/>
  <path fill-rule="evenodd" clip-rule="evenodd" d="M 101.637 161.513 L 83.442 179.707 C 81.458 181.687 78.272 181.737 76.315 179.726 C 74.281 177.746 74.299 174.555 76.293 172.558 L 94.469 154.386 C 96.425 152.37 99.666 152.338 101.618 154.345 C 103.639 156.311 103.657 159.547 101.637 161.513 Z M 154.386 101.659 C 152.361 99.694 152.343 96.453 154.363 94.491 L 172.558 76.297 C 174.537 74.318 177.728 74.267 179.68 76.274 C 181.687 78.222 181.673 81.477 179.703 83.447 L 161.531 101.618 C 159.575 103.63 156.334 103.666 154.386 101.659 Z M 161.509 154.363 L 179.703 172.558 C 181.687 174.542 181.733 177.733 179.721 179.685 C 177.742 181.723 174.555 181.705 172.558 179.707 L 154.386 161.531 C 152.37 159.575 152.334 156.334 154.341 154.386 C 156.306 152.361 159.547 152.343 161.509 154.363 Z M 83.442 76.297 L 101.618 94.473 C 103.63 96.43 103.666 99.671 101.659 101.618 C 99.689 103.639 96.453 103.657 94.491 101.641 L 76.293 83.447 C 74.313 81.463 74.263 78.272 76.274 76.32 C 78.222 74.313 81.472 74.331 83.442 76.297 Z" fill="#28292B" style=""/>
</svg>